<svg xmlns="http://www.w3.org/2000/svg" width="30" height="34" viewBox="0 0 30 34"><g><g><path fill="#fff" d="M15.196 4.345c5.826 0 10.565 4.75 10.565 10.59s-4.74 10.59-10.534 10.59l-.126-.008a19.036 19.036 0 0 0-.35-.02l-.711-.03-.683.204-7.085 2.122.86-3.392.473-1.865-1.094-1.584a10.533 10.533 0 0 1-1.88-6.017c0-5.84 4.74-10.59 10.565-10.59 5.826 0 0 0 0 0zM.393 14.935c0 3.132.975 6.032 2.63 8.426L.327 33.996l14.247-4.267c.208.008.412.031.622.031C23.372 29.76 30 23.123 30 14.935 30 6.747 23.372.109 15.196.109S.393 6.747.393 14.935z"/></g></g></svg>