<svg xmlns="http://www.w3.org/2000/svg" width="35" height="34" viewBox="0 0 35 34"><g><g><path fill="#f1fbff" d="M13.378 4.24c4.648 0 8.43 3.8 8.43 8.47 0 1.76-.54 3.454-1.563 4.897l-.83 1.171-1.165.834a8.33 8.33 0 0 1-4.872 1.57c-4.648 0-8.43-3.8-8.43-8.471 0-4.672 3.782-8.472 8.43-8.472zM.734 12.71c0 7.02 5.66 12.708 12.644 12.708 2.73 0 5.25-.878 7.316-2.355L30.848 33.27c.413.415.953.622 1.493.622.54 0 1.08-.207 1.493-.622a2.128 2.128 0 0 0 0-3L23.679 20.064a12.681 12.681 0 0 0 2.344-7.353C26.023 5.693 20.36.003 13.378.003S.734 5.693.734 12.711z"/></g></g></svg>