<svg xmlns="http://www.w3.org/2000/svg" width="34" height="34" viewBox="0 0 34 34"><g><g><path fill="#fff" d="M25.804 5.092L12.728 17.688v3.495h3.498L28.834 8.119zm.027-5.089c.541 0 1.083.207 1.495.62l5.981 5.975a2.112 2.112 0 0 1 0 2.988l-15.28 15.832H8.489v-9.53L24.336.62A2.111 2.111 0 0 1 25.83.003zM29.687 23.3a2.12 2.12 0 0 1 4.24 0v8.472a2.12 2.12 0 0 1-2.12 2.119H2.129a2.12 2.12 0 0 1-2.12-2.119V2.122C.009.951.958.002 2.129.002h8.48a2.12 2.12 0 1 1 0 4.236h-5.3a1.06 1.06 0 0 0-1.06 1.059v23.298c0 .585.474 1.059 1.06 1.059h23.318a1.06 1.06 0 0 0 1.06-1.06z"/></g></g></svg>